<?xml version="1.0" standalone="no"?>
<!DOCTYPE svg PUBLIC "-//W3C//DTD SVG 1.1//EN" "http://www.w3.org/Graphics/SVG/1.1/DTD/svg11.dtd" >
<svg xmlns="http://www.w3.org/2000/svg">
<metadata>Generated by IcoMoon</metadata>
<defs>
<font id="minimal-icons" horiz-adv-x="1024">
<font-face units-per-em="1024" ascent="1024" descent="0" />
<missing-glyph horiz-adv-x="1024" />
<glyph unicode="&#x20;" horiz-adv-x="0" d="" />
<glyph unicode="&#xe800;" glyph-name="truck" d="M751.616 183.296c-88.064 0-159.744 72.704-159.744 160.768s71.68 160.768 159.744 160.768 160.768-72.704 160.768-160.768-72.704-160.768-160.768-160.768zM751.616 472.064c-70.656 0-128-57.344-128-128s57.344-128 128-128 128 57.344 128 128-57.344 128-128 128zM256 183.296c-89.088 0-160.768 72.704-160.768 160.768s71.68 160.768 160.768 160.768c88.064 0 159.744-72.704 159.744-160.768s-71.68-160.768-159.744-160.768zM256 472.064c-70.656 0-129.024-57.344-129.024-128s58.368-128 129.024-128c70.656 0 128 57.344 128 128s-57.344 128-128 128zM518.144 376.832h-84.992v31.744h66.56l19.456 31.744h57.344v-31.744h-38.912l-19.456-31.744zM969.728 408.576h-38.912v31.744h25.6l34.816 36.864v92.16h-111.616v158.72h-82.944l-78.848-182.272-28.672 12.288 86.016 202.752h248.832v-296.96l-54.272-55.296zM912.384 601.088h78.848v126.976h-78.848v-126.976zM579.584 488.448h-3.072l-472.064 76.8c-14.336 1.024-25.6 11.264-27.648 24.576l-76.8 169.984v4.096c0 15.36 13.312 28.672 28.672 28.672l696.32 48.128c0 0 0 0 0 0 9.216 0 16.384-4.096 21.504-9.216v9.216h234.496v-32.768h-225.28l-148.48-294.912c-2.048-14.336-13.312-24.576-27.648-24.576zM108.544 596.992l467.968-75.776 143.36 286.72-685.056-47.104 73.728-163.84z" />
<glyph unicode="&#xe801;" glyph-name="database" d="M512 1007.616c-196.608 0-395.264-37.888-395.264-110.592h31.744c0 27.648 124.928 78.848 363.52 78.848s363.52-51.2 363.52-78.848v-31.744c0-25.6-128-73.728-363.52-73.728-238.592 0-363.52 47.104-363.52 73.728h-31.744c0-77.824 236.544-106.496 395.264-106.496 123.904 0 293.888 17.408 363.52 61.44v-195.584c0-33.792-141.312-80.896-363.52-80.896s-363.52 47.104-363.52 80.896v73.728h-31.744v-571.392c0-69.632 172.032-95.232 246.784-103.424 47.104-5.12 97.28-7.168 148.48-7.168 196.608 0 395.264 37.888 395.264 110.592v770.048c0 72.704-198.656 110.592-395.264 110.592zM875.52 126.976c0-27.648-124.928-78.848-363.52-78.848-50.176 0-99.328 2.048-145.408 7.168-150.528 15.36-218.112 51.2-218.112 71.68v189.44c64.512-45.056 215.040-67.584 363.52-67.584s299.008 22.528 363.52 67.584v-189.44zM875.52 366.592c0-34.816-141.312-86.016-363.52-86.016s-363.52 51.2-363.52 86.016v209.92c64.512-43.008 215.040-64.512 363.52-64.512s299.008 21.504 363.52 64.512v-209.92z" />
<glyph unicode="&#xe802;" glyph-name="mining" d="M84.992 9.216c-8.192 0-16.384 3.072-22.528 9.216l-44.032 44.032c-12.288 12.288-12.288 31.744 0 44.032l358.4 359.424 22.528-22.528-358.4-359.424 44.032-43.008 536.576 537.6 22.528-22.528-537.6-537.6c-6.144-6.144-14.336-9.216-21.504-9.216zM841.728 753.664l-22.528 22.528 11.264 11.264-44.032 43.008-10.24-11.264-22.528 22.528 11.264 11.264c12.288 12.288 31.744 12.288 44.032 0l44.032-44.032c12.288-12.288 12.288-31.744 0-44.032l-11.264-11.264zM698.368 578.56v0c-8.192 0-14.336 3.072-19.456 8.192l-92.16 92.16c-11.264 11.264-10.24 29.696 2.048 41.984l99.328 99.328c11.264 11.264 31.744 12.288 41.984 2.048l92.16-92.16c5.12-5.12 7.168-12.288 8.192-19.456 0-8.192-4.096-16.384-10.24-22.528l-99.328-99.328c-6.144-6.144-14.336-10.24-22.528-10.24zM611.328 699.392l87.040-87.040 98.304 97.28-87.040 87.040-98.304-97.28zM958.464 166.912l-11.264 6.144-11.264 7.168 5.12 13.312c24.576 68.608-48.128 206.848-189.44 361.472l23.552 21.504c145.408-159.744 190.464-264.192 199.68-327.68 29.696 91.136-25.6 237.568-148.48 381.952l24.576 20.48c162.816-191.488 209.92-381.952 116.736-475.136l-9.216-9.216zM555.008 751.616c-238.592 218.112-343.040 195.584-361.472 189.44-12.288-5.12-18.432 3.072-20.48 6.144l3.072 20.48c93.184 93.184 283.648 46.080 475.136-116.736l-20.48-24.576c-144.384 122.88-290.816 178.176-381.952 148.48 63.488-9.216 167.936-54.272 327.68-199.68l-21.504-23.552z" />
<glyph unicode="&#xe803;" glyph-name="check" d="M402.432 87.040c-8.192 0-16.384 3.072-22.528 9.216l-362.496 363.52c-13.312 12.288-13.312 32.768 0 45.056l100.352 101.376 22.528-22.528-100.352-101.376 362.496-362.496 581.632 580.608-203.776 204.8-377.856-377.856-158.72 158.72-10.24-10.24-22.528 22.528 10.24 10.24c6.144 6.144 13.312 9.216 22.528 9.216 0 0 0 0 0 0 8.192 0 16.384-3.072 22.528-9.216l136.192-136.192 355.328 355.328c12.288 12.288 32.768 12.288 45.056 0l204.8-204.8c5.12-5.12 9.216-13.312 9.216-22.528 0-8.192-4.096-16.384-9.216-22.528l-582.656-581.632c-6.144-6.144-14.336-9.216-22.528-9.216z" />
<glyph unicode="&#xe804;" glyph-name="cancel" d="M274.432 15.36c-8.192 0-16.384 3.072-22.528 9.216l-227.328 227.328c-12.288 12.288-12.288 32.768 0 45.056l216.064 215.040-216.064 215.040c-6.144 6.144-9.216 14.336-9.216 22.528s3.072 17.408 9.216 22.528l114.688 114.688 22.528-22.528-114.688-114.688 238.592-237.568-238.592-237.568 227.328-227.328 237.568 238.592 237.568-238.592 227.328 227.328-238.592 237.568 238.592 237.568-227.328 227.328-237.568-238.592-237.568 238.592-10.24-10.24-22.528 22.528 10.24 10.24c12.288 12.288 32.768 12.288 45.056 0l215.040-215.040 215.040 215.040c6.144 6.144 14.336 9.216 22.528 9.216 0 0 0 0 0 0 9.216 0 17.408-3.072 22.528-9.216l227.328-227.328c6.144-5.12 9.216-13.312 9.216-22.528 0-8.192-3.072-16.384-9.216-22.528l-215.040-215.040 215.040-215.040c12.288-12.288 12.288-32.768 0-45.056l-227.328-227.328c-12.288-12.288-32.768-12.288-45.056 0l-215.040 216.064-215.040-216.064c-6.144-6.144-14.336-9.216-22.528-9.216z" />
<glyph unicode="&#xe805;" glyph-name="loader" d="M512 16.384c-273.408 0-495.616 222.208-495.616 495.616 0 105.472 32.768 206.848 94.208 291.84l25.6-19.456c-57.344-78.848-88.064-174.080-88.064-272.384 0-256 207.872-463.872 463.872-463.872s463.872 207.872 463.872 463.872-207.872 463.872-463.872 463.872c-80.896 0-159.744-20.48-229.376-60.416l-16.384 27.648c74.752 41.984 159.744 64.512 245.76 64.512 273.408 0 495.616-222.208 495.616-495.616s-222.208-495.616-495.616-495.616z" />
<glyph unicode="&#xe806;" glyph-name="check-o" d="M498.688 429.056l219.136 218.112 22.528-22.528-240.64-240.64-11.264 11.264-1.024-1.024-131.072 132.096 22.528 22.528 119.808-119.808zM987.136 656.384l-30.72-9.216c13.312-44.032 19.456-89.088 19.456-135.168 0-256-207.872-463.872-463.872-463.872s-463.872 207.872-463.872 463.872 207.872 463.872 463.872 463.872c51.2 0 101.376-8.192 149.504-24.576l10.24 30.72c-51.2 17.408-104.448 25.6-159.744 25.6-273.408 0-495.616-222.208-495.616-495.616s222.208-495.616 495.616-495.616 495.616 222.208 495.616 495.616c0 49.152-7.168 97.28-20.48 144.384z" />
<glyph unicode="&#xe807;" glyph-name="cancel-o" d="M677.888 655.36l-143.36-143.36 143.36-143.36-22.528-22.528-143.36 143.36-143.36-143.36-22.528 22.528 143.36 143.36-143.36 143.36 22.528 22.528 143.36-143.36 143.36 143.36 22.528-22.528zM987.136 656.384l-30.72-9.216c13.312-44.032 19.456-89.088 19.456-135.168 0-256-207.872-463.872-463.872-463.872s-463.872 207.872-463.872 463.872c0 256 207.872 463.872 463.872 463.872 51.2 0 101.376-8.192 149.504-24.576l10.24 30.72c-51.2 17.408-105.472 25.6-159.744 25.6-273.408 0-495.616-222.208-495.616-495.616s222.208-495.616 495.616-495.616c273.408 0 495.616 222.208 495.616 495.616 0 49.152-7.168 97.28-20.48 144.384z" />
<glyph unicode="&#xe808;" glyph-name="warning-o" d="M1007.616 512c0-273.408-222.208-495.616-495.616-495.616s-495.616 222.208-495.616 495.616c0 105.472 32.768 206.848 94.208 291.84l25.6-19.456c-57.344-78.848-88.064-174.080-88.064-272.384 0-256 207.872-463.872 463.872-463.872s463.872 207.872 463.872 463.872-207.872 463.872-463.872 463.872c-80.896 0-159.744-20.48-229.376-60.416l-16.384 27.648c74.752 43.008 159.744 64.512 245.76 64.512 273.408 0 495.616-222.208 495.616-495.616zM577.536 716.8v9.216c0 36.864-29.696 66.56-65.536 66.56s-64.512-29.696-64.512-66.56c0-2.048 0-7.168-1.024-13.312h32.768c0 6.144 0 11.264 0 13.312 0 19.456 14.336 34.816 32.768 34.816s32.768-15.36 32.768-34.816v-10.24c4.096-287.744-32.768-302.080-32.768-302.080s-25.6 9.216-31.744 179.2l-31.744-1.024c6.144-185.344 35.84-209.92 63.488-209.92 6.144 0 15.36 2.048 24.576 10.24 29.696 30.72 43.008 136.192 40.96 324.608zM512 329.728c35.84 0 65.536-29.696 65.536-65.536s-29.696-65.536-65.536-65.536c-35.84 0-64.512 29.696-64.512 65.536s28.672 65.536 64.512 65.536zM512 297.984c-18.432 0-32.768-15.36-32.768-33.792s14.336-33.792 32.768-33.792c18.432 0 32.768 15.36 32.768 33.792s-14.336 33.792-32.768 33.792z" />
<glyph unicode="&#xe809;" glyph-name="network" d="M513.024 229.376c-64.512 0-126.976 23.552-176.128 65.536l19.456 22.528c44.032-36.864 99.328-57.344 156.672-57.344 126.976 0 232.448 99.328 240.64 226.304l29.696-2.048c-9.216-142.336-128-254.976-270.336-254.976zM258.048 408.576c-11.264 29.696-16.384 61.44-16.384 93.184 0 150.528 121.856 272.384 271.36 272.384 106.496 0 203.776-63.488 247.808-161.792l-27.648-12.288c-38.912 87.040-124.928 143.36-220.16 143.36-133.12 0-241.664-108.544-241.664-241.664 0-28.672 5.12-56.32 14.336-82.944l-27.648-10.24zM135.168 310.272c-52.224 0-88.064 12.288-99.328 38.912-22.528 53.248 62.464 125.952 138.24 178.176l17.408-24.576c-100.352-68.608-137.216-120.832-128-142.336 17.408-40.96 212.992-25.6 490.496 93.184 122.88 52.224 232.448 112.64 310.272 171.008 81.92 61.44 103.424 102.4 96.256 118.784-10.24 23.552-87.040 32.768-232.448-4.096l-7.168 29.696c88.064 21.504 240.64 49.152 267.264-13.312 16.384-38.912-19.456-91.136-106.496-155.648-78.848-59.392-191.488-120.832-315.392-174.080-155.648-66.56-325.632-115.712-431.104-115.712z" />
<glyph unicode="&#xe80a;" glyph-name="block" d="M1024 797.696l-16.384-5.12-495.616 143.36-495.616-143.36-16.384 5.12v-69.632h31.744v26.624l463.872-134.144v-494.592l-463.872 134.144v339.968h-31.744v-363.52l495.616-144.384v-9.216l16.384 5.12 16.384-5.12v9.216l495.616 144.384v561.152zM73.728 776.192l438.272 126.976 438.272-126.976-438.272-126.976-438.272 126.976zM992.256 260.096l-463.872-134.144v494.592l463.872 134.144v-494.592z" />
<glyph unicode="&#xe80b;" glyph-name="bulb" d="M387.072 224.256c-12.288 22.528-4.096 37.888 1.024 46.080 4.096 6.144 4.096 7.168 1.024 14.336-27.648 48.128-60.416 86.016-91.136 122.88-36.864 43.008-70.656 82.944-92.16 134.144-12.288 28.672-18.432 57.344-21.504 89.088-1.024 14.336-2.048 28.672-3.072 41.984-1.024 10.24-1.024 20.48-1.024 29.696 0 11.264 1.024 24.576 3.072 38.912 18.432 131.072 122.88 236.544 261.12 263.168 22.528 2.048 44.032 3.072 66.56 3.072s45.056-1.024 65.536-3.072v0h3.072c153.6-29.696 264.192-156.672 264.192-302.080 0-37.888-7.168-87.040-20.48-143.36-23.552-69.632-60.416-112.64-100.352-157.696-28.672-33.792-59.392-68.608-86.016-116.736-4.096-7.168-4.096-8.192 0-14.336 5.12-8.192 13.312-22.528 2.048-46.080l-28.672 15.36c4.096 7.168 3.072 8.192-1.024 14.336-5.12 9.216-13.312 23.552-1.024 46.080 28.672 51.2 60.416 87.040 91.136 121.856 38.912 45.056 72.704 83.968 93.184 146.432 12.288 51.2 19.456 99.328 19.456 134.144 0 130.048-99.328 243.712-237.568 270.336v0c-40.96 4.096-84.992 4.096-125.952 0-122.88-23.552-217.088-118.784-233.472-235.52-2.048-13.312-3.072-24.576-3.072-34.816 0-8.192 1.024-17.408 1.024-27.648 1.024-14.336 2.048-27.648 3.072-41.984 2.048-27.648 9.216-53.248 19.456-78.848 19.456-46.080 52.224-84.992 86.016-125.952 32.768-36.864 65.536-76.8 95.232-128 12.288-22.528 4.096-36.864-1.024-45.056-3.072-7.168-4.096-8.192 0-15.36l-28.672-15.36zM456.704 16.384c-25.6 0-50.176 7.168-56.32 45.056l30.72 5.12c4.096-18.432 9.216-20.48 48.128-17.408 19.456 2.048 46.080 2.048 65.536 0 38.912-3.072 44.032-1.024 47.104 17.408l31.744-5.12c-8.192-50.176-49.152-47.104-80.896-44.032-20.48 2.048-41.984 2.048-61.44 0-7.168 0-16.384-1.024-24.576-1.024zM387.072 130.048h247.808v-31.744h-247.808v31.744zM387.072 193.536h247.808v-31.744h-247.808v31.744zM575.488 351.232h-32.768c0 56.32 4.096 105.472 12.288 146.432-16.384 3.072-30.72 8.192-44.032 16.384-12.288-7.168-25.6-13.312-40.96-15.36 7.168-40.96 11.264-89.088 11.264-145.408h-31.744c0 63.488-5.12 109.568-12.288 144.384-51.2 5.12-99.328 35.84-99.328 92.16 0 24.576 18.432 44.032 41.984 44.032 13.312 0 45.056-6.144 69.632-64.512 5.12-11.264 10.24-24.576 13.312-39.936 8.192 1.024 16.384 4.096 22.528 7.168-15.36 18.432-24.576 41.984-24.576 66.56 0 36.864 21.504 63.488 51.2 63.488s52.224-26.624 52.224-62.464c0-24.576-10.24-49.152-26.624-67.584 7.168-4.096 15.36-6.144 24.576-7.168 3.072 14.336 8.192 27.648 13.312 39.936 25.6 59.392 57.344 65.536 69.632 65.536 23.552 0 40.96-18.432 40.96-43.008 0-56.32-47.104-88.064-98.304-94.208-7.168-34.816-12.288-81.92-12.288-146.432zM379.904 602.112c-7.168 0-10.24-6.144-10.24-12.288 0-32.768 27.648-52.224 59.392-58.368-2.048 10.24-6.144 18.432-8.192 25.6-14.336 32.768-30.72 45.056-40.96 45.056zM645.12 603.136c-9.216 0-25.6-12.288-39.936-46.080-3.072-7.168-6.144-15.36-9.216-25.6 31.744 7.168 57.344 27.648 57.344 60.416 0 2.048 0 11.264-8.192 11.264zM512 634.88c-13.312 0-19.456-16.384-19.456-31.744 0-18.432 7.168-34.816 19.456-48.128 12.288 13.312 19.456 30.72 19.456 49.152 0 15.36-6.144 30.72-19.456 30.72z" />
<glyph unicode="&#xe80c;" glyph-name="node" d="M233.472 528.384h541.696v-31.744h-541.696v31.744zM202.752 387.072h603.136c26.624 0 47.104 21.504 47.104 47.104h-31.744c0-8.192-7.168-15.36-15.36-15.36h-603.136c-8.192 0-15.36 7.168-15.36 15.36v418.816c0 8.192 7.168 14.336 15.36 14.336h603.136c8.192 0 15.36-6.144 15.36-14.336v-201.728h31.744v201.728c0 25.6-20.48 47.104-47.104 47.104h-603.136c-26.624 0-47.104-21.504-47.104-47.104v-418.816c0-25.6 20.48-47.104 47.104-47.104zM528.384 356.352h-31.744v-75.776h-62.464v-156.672h155.648v156.672h-61.44v75.776zM558.080 156.672h-92.16v91.136h92.16v-91.136zM31.744 218.112h371.712v-31.744h-371.712v31.744zM620.544 218.112h371.712v-31.744h-371.712v31.744z" />
<glyph unicode="&#xe80d;" glyph-name="laptop" d="M914.432 405.504c-1.024 16.384-9.216 30.72-22.528 39.936 6.144 8.192 9.216 18.432 9.216 29.696v409.6c0 29.696-22.528 53.248-50.176 53.248h-674.816c-27.648 0-50.176-23.552-50.176-53.248v-38.912h31.744v38.912c0 11.264 8.192 21.504 18.432 21.504h674.816c10.24 0 18.432-10.24 18.432-21.504v-409.6c0-11.264-8.192-21.504-18.432-21.504h-674.816c-10.24 0-18.432 10.24-18.432 21.504v249.856h-31.744v-249.856c0-10.24 3.072-19.456 7.168-27.648-14.336-8.192-24.576-23.552-25.6-41.984l-91.136-265.216v-3.072c0-27.648 22.528-51.2 50.176-51.2h890.88c27.648 0 50.176 23.552 50.176 51.2v3.072l-93.184 265.216zM957.44 117.76h-890.88c-9.216 0-17.408 8.192-18.432 17.408l91.136 265.216v2.048c0 11.264 8.192 19.456 18.432 19.456h706.56c10.24 0 18.432-8.192 18.432-19.456v-2.048l93.184-265.216c-1.024-9.216-9.216-17.408-18.432-17.408zM759.808 393.216h-500.736c-20.48 0-36.864-15.36-38.912-35.84l-41.984-137.216-1.024-4.096c0-21.504 17.408-38.912 38.912-38.912h587.776c20.48 0 37.888 17.408 37.888 38.912l-44.032 141.312c-2.048 20.48-18.432 35.84-37.888 35.84zM791.552 271.36h-39.936l-9.216 28.672h32.768v22.528l16.384-51.2zM311.296 300.032h49.152l-7.168-28.672h-51.2l9.216 28.672zM268.288 271.36h-40.96l9.216 28.672h40.96l-9.216-28.672zM618.496 331.776h-50.176v29.696h43.008l7.168-29.696zM644.096 361.472h44.032l9.216-29.696h-46.080l-7.168 29.696zM649.216 210.944h-277.504l7.168 28.672h263.168l7.168-28.672zM477.184 271.36v28.672h59.392v-28.672h-59.392zM444.416 271.36h-58.368l7.168 28.672h51.2v-28.672zM568.32 271.36v28.672h58.368l7.168-28.672h-65.536zM536.576 331.776h-59.392v29.696h59.392v-29.696zM444.416 331.776h-43.008l7.168 29.696h35.84v-29.696zM368.64 331.776h-46.080l9.216 29.696h44.032l-7.168-29.696zM345.088 239.616l-7.168-30.72h-56.32l10.24 30.72h53.248zM674.816 239.616h54.272l9.216-30.72h-56.32l-7.168 30.72zM666.624 271.36v0l-7.168 28.672h49.152l9.216-28.672h-51.2zM765.952 354.304l7.168-22.528h-41.984l-9.216 29.696h37.888c3.072 0 6.144-3.072 6.144-7.168zM252.928 354.304c0 4.096 2.048 7.168 6.144 7.168h38.912l-9.216-29.696h-43.008l6.144 18.432 1.024 4.096zM209.92 214.016l8.192 25.6h39.936l-10.24-30.72h-31.744c-3.072 0-5.12 2.048-6.144 5.12zM803.84 208.896h-31.744l-10.24 30.72h39.936l8.192-25.6c-1.024-3.072-3.072-5.12-6.144-5.12zM842.752 633.856v197.632c0 25.6-20.48 47.104-46.080 47.104h-563.2c-25.6 0-47.104-21.504-47.104-47.104v-303.104c0-25.6 21.504-46.080 47.104-46.080h563.2c25.6 0 46.080 20.48 46.080 46.080v29.696h-31.744v-29.696c0-8.192-7.168-14.336-14.336-14.336h-563.2c-8.192 0-14.336 6.144-14.336 14.336v303.104c0 8.192 6.144 14.336 14.336 14.336h563.2c7.168 0 14.336-6.144 14.336-14.336v-197.632h31.744zM428.032 707.584l-126.976-109.568 20.48-23.552 111.616 95.232 138.24-56.32 155.648 126.976-20.48 24.576-140.288-114.688-138.24 57.344z" />
<glyph unicode="&#xe80e;" glyph-name="time" d="M842.752 991.232h-661.504v-30.72h53.248c-14.336-77.824-43.008-362.496 272.384-462.848 307.2-98.304 263.168-375.808 249.856-435.2h-490.496c-6.144 33.792-23.552 140.288 19.456 241.664l-28.672 12.288c-44.032-105.472-30.72-210.944-22.528-253.952h-53.248v-30.72h661.504v30.72h-55.296c14.336 76.8 46.080 363.52-271.36 464.896-304.128 96.256-263.168 371.712-249.856 433.152h490.496c12.288-58.368 51.2-312.32-210.944-418.816l12.288-28.672c270.336 110.592 243.712 372.736 230.4 447.488h54.272v30.72z" />
<glyph unicode="&#xe80f;" glyph-name="clock" d="M513.024 495.616h-314.368v31.744h297.984v164.864h32.768v-184.32l-6.144-12.288h-10.24zM1007.616 512c0 273.408-222.208 495.616-495.616 495.616-39.936 0-79.872-4.096-118.784-14.336l8.192-30.72c35.84 9.216 72.704 13.312 110.592 13.312 256 0 463.872-207.872 463.872-463.872s-207.872-463.872-463.872-463.872-463.872 207.872-463.872 463.872c0 54.272 9.216 108.544 27.648 158.72l-29.696 11.264c-20.48-54.272-29.696-111.616-29.696-169.984 0-273.408 222.208-495.616 495.616-495.616s495.616 222.208 495.616 495.616zM953.344 922.624c-2.048 21.504-12.288 40.96-28.672 55.296-17.408 14.336-37.888 21.504-59.392 19.456-21.504-1.024-40.96-11.264-55.296-27.648l24.576-20.48c8.192 10.24 19.456 15.36 32.768 16.384s25.6-3.072 36.864-12.288c10.24-8.192 16.384-20.48 17.408-33.792 1.024-12.288-2.048-24.576-10.24-34.816l23.552-20.48c14.336 16.384 20.48 36.864 18.432 58.368zM528.384 954.368h-31.744v-62.464h31.744v62.464zM528.384 129.024h-31.744v-62.464h31.744v62.464zM956.416 526.336h-62.464v-31.744h62.464v31.744zM131.072 526.336h-62.464v-31.744h62.464v31.744z" />
<glyph unicode="&#xe810;" glyph-name="group" d="M512 439.296c-59.392 0-107.52 49.152-107.52 108.544 0 60.416 48.128 109.568 107.52 109.568s108.544-49.152 108.544-109.568c0-59.392-49.152-108.544-108.544-108.544zM512 624.64c-40.96 0-75.776-33.792-75.776-76.8s34.816-76.8 75.776-76.8c41.984 0 75.776 34.816 75.776 76.8s-33.792 76.8-75.776 76.8zM760.832 260.096h-31.744c0 64.512-99.328 117.76-216.064 117.76-117.76 0-217.088-53.248-217.088-117.76h-31.744c0 83.968 109.568 150.528 248.832 150.528s247.808-66.56 247.808-150.528zM203.776 594.944c-51.2 0-93.184 41.984-93.184 92.16 0 51.2 41.984 93.184 93.184 93.184s93.184-41.984 93.184-93.184c0-50.176-41.984-92.16-93.184-92.16zM203.776 747.52c-33.792 0-61.44-26.624-61.44-60.416 0-32.768 27.648-60.416 61.44-60.416s61.44 27.648 61.44 60.416c0 33.792-27.648 60.416-61.44 60.416zM389.12 431.104h-32.768c0 58.368-64.512 101.376-153.6 101.376-90.112 0-154.624-43.008-154.624-101.376h-31.744c0 76.8 77.824 133.12 186.368 133.12 107.52 0 186.368-56.32 186.368-133.12zM821.248 592.896c-51.2 0-92.16 41.984-92.16 93.184s40.96 93.184 92.16 93.184 93.184-41.984 93.184-93.184c0-51.2-41.984-93.184-93.184-93.184zM821.248 747.52c-32.768 0-60.416-27.648-60.416-61.44s27.648-60.416 60.416-60.416 61.44 26.624 61.44 60.416c0 33.792-27.648 61.44-61.44 61.44zM1007.616 431.104h-31.744c0 59.392-64.512 102.4-153.6 102.4-90.112 0-154.624-43.008-154.624-102.4h-31.744c0 77.824 77.824 134.144 186.368 134.144 107.52 0 185.344-56.32 185.344-134.144z" />
<glyph unicode="&#xe811;" glyph-name="gas" d="M512 16.384c-273.408 0-495.616 222.208-495.616 495.616 0 105.472 32.768 206.848 95.232 291.84l25.6-19.456c-58.368-78.848-88.064-173.056-88.064-272.384 0-256 207.872-463.872 462.848-463.872 256 0 462.848 207.872 462.848 463.872s-206.848 463.872-462.848 463.872c-80.896 0-159.744-20.48-229.376-60.416l-15.36 27.648c73.728 41.984 158.72 64.512 244.736 64.512 273.408 0 495.616-222.208 495.616-495.616s-222.208-495.616-495.616-495.616zM798.72 480.256l-13.312 28.672 67.584 28.672c-6.144 183.296-156.672 329.728-340.992 329.728-187.392 0-340.992-152.576-340.992-339.968h-31.744c0 205.824 166.912 372.736 372.736 372.736s372.736-166.912 372.736-372.736v-10.24l-86.016-36.864zM512 203.776v31.744c25.6 0 46.080 20.48 46.080 45.056 0 45.056-24.576 265.216-46.080 316.416-21.504-51.2-46.080-271.36-46.080-316.416h-31.744c0 18.432 7.168 104.448 18.432 185.344 21.504 157.696 40.96 171.008 59.392 171.008 19.456 0 37.888-13.312 59.392-171.008 11.264-80.896 18.432-166.912 18.432-185.344 0-41.984-34.816-76.8-77.824-76.8z" />
<glyph unicode="&#xe812;" glyph-name="difficulty" d="M509.952 21.504c-9.216 0-17.408 3.072-23.552 9.216l-460.8 460.8c-12.288 13.312-12.288 33.792 0 46.080l143.36 143.36c-23.552 6.144-44.032 17.408-61.44 34.816-24.576 24.576-38.912 58.368-38.912 94.208s14.336 68.608 38.912 94.208c25.6 25.6 58.368 38.912 94.208 38.912s69.632-13.312 94.208-38.912c25.6-25.6 39.936-59.392 38.912-95.232h-31.744c0 27.648-10.24 53.248-29.696 72.704s-44.032 29.696-71.68 29.696c-26.624 0-52.224-11.264-71.68-29.696-18.432-19.456-29.696-45.056-29.696-71.68s11.264-52.224 29.696-71.68c19.456-19.456 46.080-30.72 72.704-29.696h39.936l-194.56-193.536 460.8-461.824 462.848 460.8-143.36 144.384c-6.144-23.552-17.408-44.032-34.816-61.44-25.6-24.576-58.368-38.912-94.208-38.912s-68.608 14.336-94.208 38.912c-25.6 25.6-38.912 58.368-38.912 94.208s13.312 69.632 38.912 94.208c17.408 17.408 37.888 29.696 61.44 34.816l-156.672 155.648-30.72-29.696-22.528 22.528 29.696 29.696c13.312 13.312 33.792 13.312 47.104 0l205.824-205.824h-38.912c-27.648 1.024-53.248-10.24-72.704-29.696s-29.696-44.032-29.696-71.68 10.24-52.224 29.696-71.68c19.456-18.432 45.056-29.696 71.68-29.696s52.224 11.264 71.68 29.696c19.456 19.456 29.696 45.056 29.696 72.704l-1.024 39.936 194.56-194.56c6.144-6.144 9.216-14.336 9.216-22.528s-3.072-17.408-9.216-23.552l-460.8-460.8c-6.144-6.144-15.36-9.216-23.552-9.216z" />
<glyph unicode="&#xe813;" glyph-name="uncle" d="M674.816 0c-128 0-233.472 104.448-233.472 233.472 0 41.984 11.264 82.944 32.768 118.784l-76.8 76.8c-28.672-17.408-61.44-25.6-94.208-25.6-103.424 0-186.368 82.944-186.368 186.368s82.944 186.368 186.368 186.368v-31.744c-86.016 0-154.624-69.632-154.624-154.624s69.632-154.624 154.624-154.624c30.72 0 61.44 9.216 87.040 27.648l11.264 7.168 113.664-113.664-7.168-11.264c-22.528-32.768-33.792-71.68-33.792-111.616 0-111.616 90.112-201.728 200.704-201.728s200.704 90.112 200.704 201.728-90.112 200.704-200.704 200.704c-47.104 0-92.16-16.384-128-46.080l-11.264-9.216-112.64 112.64 7.168 10.24c17.408 26.624 27.648 56.32 27.648 88.064 0 27.648-8.192 54.272-22.528 78.848l-6.144 10.24 131.072 132.096 11.264-6.144c15.36-9.216 31.744-13.312 49.152-13.312 55.296 0 100.352 45.056 100.352 100.352s-45.056 100.352-100.352 100.352c-16.384 0-32.768-4.096-47.104-11.264-32.768-18.432-53.248-52.224-53.248-89.088 0-17.408 5.12-34.816 13.312-49.152l6.144-11.264-119.808-119.808-22.528 22.528 102.4 103.424c-7.168 17.408-11.264 35.84-11.264 54.272 0 49.152 26.624 94.208 70.656 116.736 18.432 10.24 39.936 15.36 61.44 15.36 72.704 0 132.096-59.392 132.096-132.096s-59.392-132.096-132.096-132.096c-18.432 0-36.864 4.096-54.272 11.264l-97.28-97.28c13.312-26.624 20.48-55.296 20.48-83.968 0-33.792-9.216-65.536-25.6-94.208l73.728-73.728c39.936 28.672 88.064 44.032 137.216 44.032 128 0 233.472-104.448 233.472-232.448s-105.472-233.472-233.472-233.472z" />
<glyph unicode="&#xe814;" glyph-name="hashrate" d="M375.808 39.936c-166.912 37.888-292.864 117.76-348.16 220.16-31.744 58.368-35.84 119.808-13.312 179.2l7.168 20.48 17.408-13.312c81.92-63.488 101.376-65.536 105.472-64.512 4.096 8.192-2.048 43.008-7.168 71.68-8.192 50.176-19.456 112.64-10.24 174.080 17.408 112.64 98.304 179.2 240.64 199.68l24.576 3.072-7.168-23.552c-15.36-53.248-8.192-93.184 19.456-111.616 31.744-21.504 87.040-11.264 130.048 23.552 68.608 54.272 87.040 145.408 49.152 244.736l-15.36 38.912 36.864-19.456c277.504-141.312 199.68-316.416 161.792-400.384-7.168-17.408-16.384-37.888-15.36-44.032 3.072-5.12 32.768-40.96 70.656-37.888 39.936 2.048 79.872 47.104 115.712 129.024l12.288 30.72 16.384-28.672c64.512-117.76 74.752-234.496 30.72-338.944-50.176-116.736-164.864-207.872-314.368-247.808l-8.192 30.72c140.288 37.888 246.784 121.856 292.864 230.4 36.864 86.016 31.744 182.272-14.336 280.576-37.888-75.776-81.92-115.712-131.072-117.76-55.296-3.072-94.208 46.080-99.328 55.296-9.216 16.384 1.024 37.888 15.36 70.656 35.84 82.944 96.256 218.112-112.64 340.992 24.576-97.28-1.024-186.368-70.656-241.664-55.296-44.032-123.904-55.296-167.936-25.6-21.504 14.336-52.224 48.128-37.888 122.88-113.664-21.504-176.128-76.8-190.464-167.936-8.192-56.32 2.048-116.736 10.24-164.864 7.168-45.056 12.288-74.752 2.048-93.184-4.096-8.192-11.264-13.312-20.48-14.336-17.408-4.096-44.032 5.12-113.664 56.32-10.24-44.032-4.096-89.088 19.456-132.096 49.152-93.184 171.008-168.96 326.656-204.8l-7.168-30.72z" />
<glyph unicode="&#xe815;" glyph-name="gasprice" d="M440.32 1.024c-8.192 0-16.384 3.072-22.528 9.216l-407.552 407.552c-12.288 12.288-12.288 32.768 0 45.056l353.28 353.28 22.528-22.528-353.28-353.28 407.552-407.552 505.856 505.856c3.072 17.408 11.264 92.16 18.432 164.864 8.192 76.8 17.408 163.84 25.6 227.328l-59.392 59.392c-63.488-8.192-149.504-17.408-226.304-24.576-72.704-8.192-148.48-16.384-165.888-19.456l-8.192-9.216-23.552 22.528 12.288 12.288c6.144 6.144 7.168 7.168 182.272 25.6 78.848 8.192 168.96 17.408 233.472 25.6l8.192 1.024 80.896-80.896-1.024-8.192c-8.192-64.512-17.408-154.624-26.624-234.496-17.408-174.080-18.432-175.104-24.576-181.248l-508.928-508.928c-6.144-6.144-14.336-9.216-22.528-9.216zM870.4 790.528c-21.504 0-41.984 8.192-56.32 23.552-15.36 14.336-23.552 34.816-23.552 56.32s8.192 40.96 23.552 56.32 34.816 23.552 56.32 23.552c21.504 0 40.96-8.192 56.32-23.552l-22.528-22.528c-18.432 18.432-50.176 18.432-67.584 0-9.216-9.216-14.336-21.504-14.336-33.792 0-13.312 5.12-24.576 14.336-33.792 17.408-18.432 49.152-18.432 67.584 0l22.528-22.528c-15.36-15.36-34.816-23.552-56.32-23.552zM430.080 211.968l-22.528 22.528 181.248 181.248c-74.752-16.384-123.904 29.696-123.904 30.72l21.504 22.528c4.096-3.072 81.92-73.728 192.512 36.864v0l23.552-22.528-272.384-271.36z" />
<glyph unicode="&#xe900;" glyph-name="cash" d="M784 576h-272v32h256l182.4 275.2h-227.2v32h284.8zM297.6 576h-275.2l220.8 336h262.4v-32h-243.2l-182.4-272h217.6zM32 448h288v-32h-288v32zM793.6 416h-281.6v32h265.6l204.8 313.6 25.6-16zM32 288h288v-32h-288v32zM793.6 256h-281.6v32h265.6l204.8 313.6 25.6-16zM793.6 128h-761.6v32h745.6l204.8 313.6 25.6-16zM511.873 614.949l197.56 287.481 23.737-16.312-197.56-287.481-23.737 16.312zM277.356 616.842l193.863 289.957 23.941-16.007-193.863-289.957-23.941 16.007zM512 608h32v-480h-32v480zM288 608h32v-480h-32v480zM409.6 550.4h25.6v-38.4h-25.6v38.4zM422.4 265.6c-28.8 0-48 35.2-54.4 44.8l22.4 9.6c16-28.8 25.6-32 32-28.8 9.6 0 25.6 16 28.8 28.8 3.2 16-6.4 28.8-9.6 35.2-6.4 6.4-19.2 16-32 22.4-9.6 3.2-16 9.6-22.4 16-9.6 9.6-19.2 22.4-22.4 35.2-3.2 16 3.2 28.8 9.6 41.6 9.6 12.8 22.4 19.2 35.2 22.4 25.6 3.2 44.8-9.6 51.2-35.2l-19.2-9.6c-6.4 16-12.8 19.2-25.6 19.2-9.6 0-16-6.4-16-9.6-3.2-6.4-6.4-12.8-3.2-22.4s6.4-16 9.6-19.2c6.4-3.2 12.8-9.6 19.2-12.8 16-9.6 28.8-19.2 38.4-28.8 6.4-6.4 22.4-28.8 16-54.4-3.2-22.4-28.8-48-51.2-51.2-3.2-3.2-6.4-3.2-6.4-3.2zM409.6 243.2h25.6v-38.4h-25.6v38.4z" />
<glyph unicode="&#xe901;" glyph-name="deposit" d="M963.2 768h-67.2v32h64v192h-864v-192h96v-32h-99.2c-16 0-28.8 16-28.8 32v192c0 19.2 12.8 32 28.8 32h867.2c19.2 0 32-16 32-32v-192c0-16-12.8-32-28.8-32zM160 896h736v-32h-736v32zM800 0h-512v512h32v-480h448v832h32zM512 640h32v-416h-32v416zM432 518.4l-19.2 22.4 108.8 128 22.4-22.4zM624 515.2l-112 131.2 22.4 19.2 108.8-128z" />
<glyph unicode="&#xe902;" glyph-name="deposit2" d="M963.2 768h-67.2v32h64v192h-864v-192h96v-32h-99.2c-16 0-28.8 16-28.8 32v192c0 19.2 12.8 32 28.8 32h867.2c19.2 0 32-16 32-32v-192c0-16-12.8-32-28.8-32zM160 896h736v-32h-736v32zM800 0h-512v512h32v-480h448v832h32zM537.6 614.4h25.6v-38.4h-25.6v38.4zM550.4 329.6c-28.8 0-48 35.2-54.4 44.8l22.4 9.6c16-28.8 25.6-32 32-28.8 9.6 0 25.6 16 28.8 28.8 3.2 16-6.4 28.8-9.6 35.2-6.4 6.4-19.2 16-32 22.4-9.6 3.2-16 9.6-22.4 16-9.6 9.6-19.2 22.4-22.4 35.2-3.2 16 3.2 28.8 9.6 41.6s22.4 19.2 35.2 22.4c25.6 3.2 44.8-9.6 51.2-35.2l-19.2-9.6c-6.4 16-12.8 19.2-25.6 19.2-9.6 0-16-6.4-16-9.6-3.2-6.4-6.4-12.8-3.2-22.4s6.4-16 9.6-19.2c6.4-3.2 12.8-9.6 19.2-12.8 16-9.6 28.8-19.2 38.4-28.8 6.4-6.4 22.4-28.8 16-54.4-3.2-22.4-28.8-48-51.2-51.2-3.2-3.2-6.4-3.2-6.4-3.2zM537.6 307.2h25.6v-38.4h-25.6v38.4z" />
<glyph unicode="&#xe903;" glyph-name="fund" d="M512 16c-272 0-496 224-496 496 0 105.6 32 208 92.8 291.2l25.6-19.2c-54.4-80-86.4-172.8-86.4-272 0-256 208-464 464-464s464 208 464 464-208 464-464 464c-80 0-160-19.2-230.4-60.8l-16 28.8c73.6 41.6 160 64 246.4 64 272 0 496-220.8 496-496s-224-496-496-496zM505.6 678.4h25.6v-38.4h-25.6v38.4zM518.4 393.6c-28.8 0-48 35.2-54.4 44.8l22.4 9.6c16-28.8 25.6-32 32-28.8 9.6 0 25.6 16 28.8 28.8 3.2 16-6.4 28.8-9.6 35.2-6.4 6.4-19.2 16-32 22.4-9.6 3.2-16 9.6-22.4 16-9.6 9.6-19.2 22.4-22.4 35.2-3.2 16 3.2 28.8 9.6 41.6 9.6 12.8 22.4 19.2 35.2 22.4 25.6 3.2 44.8-9.6 51.2-35.2l-19.2-9.6c-6.4 16-12.8 19.2-25.6 19.2-9.6 0-16-6.4-16-9.6-3.2-6.4-6.4-12.8-3.2-22.4s6.4-16 9.6-19.2c6.4-3.2 12.8-9.6 19.2-12.8 16-9.6 28.8-19.2 38.4-28.8 6.4-6.4 22.4-28.8 16-54.4-3.2-22.4-28.8-48-51.2-51.2-3.2-3.2-6.4-3.2-6.4-3.2zM505.6 371.2h25.6v-38.4h-25.6v38.4z" />
<glyph unicode="&#xe904;" glyph-name="withdrawal" d="M963.2 768h-67.2v32h64v192h-864v-192h96v-32h-99.2c-16 0-28.8 16-28.8 32v192c0 19.2 12.8 32 28.8 32h867.2c19.2 0 32-16 32-32v-192c0-16-12.8-32-28.8-32zM160 896h736v-32h-736v32zM800 0h-512v512h32v-480h448v832h32zM512 668.8h32v-416h-32v416zM624 374.4l19.2-22.4-108.8-128-22.4 22.4zM432 377.6l112-131.2-22.4-19.2-108.8 128z" />
<glyph unicode="&#xe905;" glyph-name="withdrawal2" d="M134.4 806.4c-57.6 0-102.4 48-102.4 108.8s44.8 108.8 102.4 108.8h828.8v-108.8h-32v76.8h-796.8c-41.6 0-70.4-32-70.4-76.8s32-76.8 70.4-76.8v-32zM1024 32h-838.4c-86.4 0-153.6 70.4-153.6 156.8v480h32v-476.8c0-70.4 54.4-128 121.6-128h806.4v262.4h32v-294.4zM822.4 451.2h48v-32h-48v32zM1024 560h-32v246.4h-857.6c-57.6 0-102.4 44.8-102.4 102.4h32c0-38.4 32-70.4 70.4-70.4h889.6v-278.4zM1008 310.4h-172.8c-67.2 0-121.6 54.4-121.6 124.8s54.4 124.8 121.6 124.8h172.8v-32h-172.8c-48 0-89.6-41.6-89.6-92.8s38.4-92.8 89.6-92.8h172.8v-32zM473.6 614.4h25.6v-38.4h-25.6v38.4zM486.4 329.6c-28.8 0-48 35.2-54.4 44.8l22.4 9.6c16-28.8 25.6-32 32-28.8 9.6 0 25.6 16 28.8 28.8 3.2 16-6.4 28.8-9.6 35.2-6.4 6.4-19.2 16-32 22.4-9.6 3.2-16 9.6-22.4 16-9.6 9.6-19.2 22.4-22.4 35.2-3.2 16 3.2 28.8 9.6 41.6 9.6 12.8 22.4 19.2 35.2 22.4 25.6 3.2 44.8-9.6 51.2-35.2l-19.2-9.6c-6.4 16-12.8 19.2-25.6 19.2-9.6 0-16-6.4-16-9.6-3.2-6.4-6.4-12.8-3.2-22.4s6.4-16 9.6-19.2c6.4-3.2 12.8-9.6 19.2-12.8 16-9.6 28.8-19.2 38.4-28.8 6.4-6.4 22.4-28.8 16-54.4-3.2-22.4-28.8-48-51.2-51.2-3.2-3.2-6.4-3.2-6.4-3.2zM473.6 307.2h25.6v-38.4h-25.6v38.4z" />
</font>
</defs>
</svg>
